<?xml version="1.0" encoding="UTF-8" standalone="yes"?>
<!DOCTYPE svg PUBLIC "-//W3C//DTD SVG 1.1//EN" "http://www.w3.org/Graphics/SVG/1.1/DTD/svg11.dtd">

<svg width="500" height="500" viewBox="0 0 500 500" xmlns="http://www.w3.org/2000/svg" xmlns:xlink="http://www.w3.org/1999/xlink" version="1.1" baseProfile="full">
    <g transform="scale(1,-1) translate(0,-500)">
        <path d="M 432.799955 264.866722 L 377.929101 172.399174 L 246.848728 185.862855 L 284.191393 228.032122 Z M 321.788089 324.564178 L 272.759965 263.088500 L 222.461682 253.435294 L 252.183395 304.749703 Z M 195.280287 210.503933 L 195.677213 209.122634 L 195.343797 207.773094 L 194.280040 206.455307 L 192.485938 205.169266 L 188.294405 203.708576 L 186.865482 203.978486 L 185.881113 204.915235 L 144.727973 276.298150 L 141.393793 276.568059 L 138.504185 277.631811 L 136.059138 279.489416 L 134.058640 282.140880 L 132.137509 286.840479 L 131.927135 288.999747 L 132.216888 291.031995 L 133.006768 292.937227 L 134.296777 294.715444 L 138.377180 297.890847 L 143.299052 299.938991 L 145.545642 300.212875 L 147.649338 299.986631 L 149.610140 299.260259 L 151.428052 298.033759 L 154.635210 294.080371 L 155.937128 290.936726 L 156.286424 287.856598 L 155.683098 284.839976 L 154.127147 281.886848 Z M 262.598696 237.939359 L 261.614329 232.374472 L 258.661221 226.095137 L 253.739359 219.101335 L 246.848728 211.393044 L 238.418041 203.446601 L 228.875993 195.738338 L 218.222552 188.268231 L 206.457683 181.036252 L 187.468765 171.033720 L 178.593539 167.104165 L 170.131126 163.889081 L 162.081516 161.388465 L 154.444703 159.602314 L 147.220678 158.530626 L 140.409433 158.173397 L 132.963106 158.871979 L 130.037771 159.745209 L 127.644319 160.967732 L 125.782749 162.539551 L 124.453058 164.460667 L 123.655245 166.731080 L 123.389307 169.350793 L 124.179180 175.133999 L 126.548803 181.179158 L 130.498181 187.486278 L 136.027321 194.055363 L 143.136230 200.886421 L 151.824912 207.979457 L 162.093374 215.334477 L 173.941622 222.951487 L 185.119018 203.645076 L 186.357423 202.406664 L 188.040380 201.993860 L 190.167894 202.406664 L 192.739970 203.645076 L 195.296174 205.407422 L 196.867998 207.138010 L 197.455442 208.836845 L 197.058509 210.503933 L 185.881113 229.810344 L 203.615743 239.114286 L 211.780475 242.646916 L 219.476827 245.433322 L 226.704805 247.473506 L 233.464418 248.767472 L 239.755670 249.315220 L 245.578570 249.116755 L 253.024897 248.418174 L 255.950232 247.544946 L 258.343684 246.322423 L 260.205254 244.750605 L 261.534945 242.829489 L 262.332758 240.559075 L 262.598696 237.939359 Z M 323.058247 136.072637 L 324.391919 132.833732 L 324.836469 129.213780 L 323.875921 122.831225 L 320.994264 115.877122 L 316.191480 108.351444 L 309.467550 100.254163 L 301.219440 92.045747 L 291.844103 84.186654 L 281.341498 76.676856 L 269.711584 69.516324 L 252.262743 60.307644 L 243.978935 56.703568 L 235.988859 53.766330 L 228.292509 51.495930 L 220.889879 49.892363 L 213.780960 48.955628 L 206.965747 48.685723 L 199.884592 49.209659 L 194.137129 50.781473 L 189.723341 53.401174 L 186.643208 57.068770 L 164.288416 94.919497 L 193.248033 158.173397 L 132.534450 144.709715 L 128.215910 158.173397 L 130.089393 156.061753 L 132.915490 154.553440 L 136.694209 153.648455 L 141.425560 153.346794 L 148.312219 153.711962 L 155.635475 154.807466 L 163.395336 156.633309 L 171.591808 159.189495 L 180.224901 162.476026 L 189.294620 166.492904 L 208.743969 176.717713 L 220.635857 184.060828 L 231.416311 191.610320 L 241.085370 199.366215 L 249.643077 207.328536 L 256.644852 214.989196 L 261.646099 221.840106 L 264.646835 227.881286 L 265.647076 233.112756 L 264.884981 236.923232 L 271.997870 224.475678 L 235.925364 182.814474 L 300.195392 176.717713 Z M 342.364659 70.532451 L 343.317273 68.119150 L 343.634818 65.451817 L 342.948144 60.053626 L 340.888120 54.528435 L 337.454740 48.876238 L 332.648000 43.097031 L 326.467893 37.190806 L 318.914416 31.157560 L 309.987563 24.997286 L 299.687328 18.709980 L 285.223368 11.152511 L 271.807338 5.754340 L 259.439194 2.515449 L 253.648063 1.705728 L 248.118887 1.435822 L 242.784208 1.816867 L 238.465671 2.960005 L 235.163267 4.865242 L 232.876983 7.532584 L 231.543312 11.851117 L 231.098761 18.201915 L 231.463928 24.870258 L 232.559434 32.173655 L 234.385285 40.112133 L 236.941491 48.685723 L 271.743838 64.181658 L 281.460572 70.167292 L 290.288159 76.184658 L 298.226633 82.233777 L 305.276026 88.314672 L 320.263898 83.996133 L 328.504086 80.487313 L 334.934261 77.073768 L 339.554444 73.755485 L 342.364659 70.532451 Z M 134.058640 202.628949 L 104.082896 161.983873 L 1.200045 134.040383 L 66.994263 195.516061 Z M 182.832732 148.774223 L 127.707847 27.855122 L 10.345187 23.028518 L 127.453815 136.580700 Z M 243.292284 245.560311 L 235.925352 245.020498 L 227.796356 243.401054 L 218.905261 240.701968 L 209.252032 236.923232 L 222.461690 240.162139 L 228.494929 240.971864 L 234.147142 241.241772 L 241.148916 240.749590 L 246.150163 239.273038 L 247.900594 238.165621 L 249.150899 236.812107 L 249.901081 235.212497 L 250.151141 233.366788 L 249.150899 228.508427 L 246.150163 222.570452 L 241.148916 215.552836 L 234.147142 207.455552 L 244.483091 217.172292 L 251.865885 225.491822 L 256.295544 232.414168 L 257.402956 235.351406 L 257.772093 237.939359 L 257.545847 239.725525 L 256.867110 241.273534 L 254.152155 243.655080 L 249.627217 245.084004 L 243.292284 245.560311 Z M 318.993740 132.516192 L 295.114757 173.923364 L 286.731710 174.177396 L 316.453422 121.338797 L 318.612696 124.418939 L 319.755845 127.308546 L 319.882862 130.007627 L 318.993740 132.516192 Z M 193.248033 210.249901 L 151.586829 281.632816 L 154.127157 286.967482 L 154.444692 289.063238 L 154.127147 290.777958 L 152.031379 294.143893 L 149.554576 296.366671 L 146.696724 297.446298 L 143.457814 297.382783 L 145.140777 296.541299 L 146.887240 295.032990 L 150.570703 290.015863 L 150.554831 288.396414 L 149.999141 286.586442 L 147.268290 282.394911 L 191.469811 207.455552 Z M 304.767963 83.996133 L 323.439320 68.373157 L 328.107137 64.276912 L 329.274089 63.157591 L 329.565827 62.830130 L 329.638761 62.724449 L 329.663072 62.657468 L 328.726340 58.719973 L 325.916129 53.766367 L 321.232422 47.796630 L 314.675200 40.810739 L 307.165385 34.142396 L 297.591591 27.093030 L 285.953777 19.662614 L 272.251901 11.851122 L 282.667187 16.042639 L 297.655074 23.028518 L 304.934688 27.656664 L 312.039626 32.903995 L 318.969915 38.770532 L 325.725581 45.256294 L 331.560389 51.630918 L 335.728095 57.164038 L 338.228710 61.855676 L 339.062246 65.705848 L 338.526403 68.603409 L 336.918870 71.326315 L 334.239644 73.874568 L 330.488720 76.248172 L 325.666094 78.447128 L 319.771762 80.471439 L 304.767963 83.996133 Z" transform="scale(1.000000,1.000000) translate(33.000000,87.000000)" fill="#f5efff" opacity="1.000000"></path>
    </g>
</svg>